<svg id="Group_20163" data-name="Group 20163" xmlns="http://www.w3.org/2000/svg" width="35.25" height="35.25" viewBox="0 0 35.25 35.25">
  <path id="Path_1415" data-name="Path 1415" d="M1231.711,7881.008h-6.152l-3.237-3.789-5.363-8.437,1.632-10.729,7.639-7.9s9.27-1.374,9.527-1.374,5.665,5.666,5.751,6.18.773,13.648.773,14.249-2.833,6.609-3,6.953S1231.711,7881.008,1231.711,7881.008Z" transform="translate(-1210.99 -7845.758)" fill="#fff"/>
  <path id="Icon_awesome-facebook-square" data-name="Icon awesome-facebook-square" d="M31.473,2.25H3.777A3.777,3.777,0,0,0,0,6.027v27.7A3.777,3.777,0,0,0,3.777,37.5h10.8V25.516H9.619V19.875h4.957v-4.3c0-4.89,2.911-7.591,7.37-7.591a30.03,30.03,0,0,1,4.368.381v4.8h-2.46c-2.424,0-3.18,1.5-3.18,3.047v3.663h5.412l-.866,5.641H20.674V37.5h10.8a3.777,3.777,0,0,0,3.777-3.777V6.027A3.777,3.777,0,0,0,31.473,2.25Z" transform="translate(0 -2.25)" fill="#1773ea"/>
</svg>
