<svg xmlns="http://www.w3.org/2000/svg" width="223.45" height="54.45" viewBox="0 0 223.45 54.45">
  <g id="Group_40136" data-name="Group 40136" transform="translate(-167 -14.111)">
    <g id="Group_40119" data-name="Group 40119">
      <g id="Layer_2" data-name="Layer 2" transform="translate(167 14.111)">
        <g id="Layer_1" data-name="Layer 1" transform="translate(0 0)">
          <path id="Path_53053" data-name="Path 53053" d="M55.881,109.508c-2.147,0-4.221-.017-6.3,0a8.24,8.24,0,0,0-6.238,2.749,8.032,8.032,0,0,0,1.14,12.012,8.567,8.567,0,0,0,5.3,1.681c2-.024,4.005-.006,6.095-.006v8.625a5.848,5.848,0,0,1-3.627,5.09,8.2,8.2,0,0,1-2.806.445q-21.834-.014-43.667-.011A5.813,5.813,0,0,1,.12,135.079a13.866,13.866,0,0,1-.11-1.58Q0,118.034,0,102.568a5.839,5.839,0,0,1,2.858-5.306,4.771,4.771,0,0,1,2.53-.79c14.791-.037,29.582-.093,44.374-.092a5.97,5.97,0,0,1,6.1,5,.748.748,0,0,1,.013.166C55.881,104.172,55.881,106.8,55.881,109.508Zm-24.367,14.74V132.7A1.558,1.558,0,0,0,33.1,134.3h3.672a1.6,1.6,0,0,0,1.722-1.711V115.73a1.718,1.718,0,0,0-1.663-1.656q-1.836-.008-3.672,0a1.563,1.563,0,0,0-1.65,1.669q0,4.249,0,8.5Zm3.9-18.136c-.933.848-1.832,1.641-2.706,2.461-1.521,1.429-3.024,2.877-4.542,4.311-1.123,1.061-2.256,2.114-3.388,3.171l-3.616-3.491a1.24,1.24,0,0,0-1.933-.082q-1.78,1.659-3.56,3.338c-1.02.967-2.018,1.956-3.042,2.918-.711.668-1.458,1.3-2.172,1.966a1.3,1.3,0,0,0-.574,1.275c.263,1.046,1.283,1.28,2.143.482,1.839-1.708,3.663-3.434,5.492-5.154q1.292-1.215,2.585-2.441l3.273,3.149a7.1,7.1,0,0,0,.567.532,1.143,1.143,0,0,0,1.78-.106c.64-.586,1.266-1.186,1.891-1.78q2.193-2.078,4.382-4.16c.977-.931,1.942-1.876,2.921-2.8.691-.654,1.4-1.291,2.09-1.927.6.556,1.172,1.145,1.814,1.634a1.357,1.357,0,0,0,1.05.256.943.943,0,0,0,.634-.988c-.036-1.63-.012-3.262-.014-4.9,0-.771-.292-1.055-1.075-1.056-1.723,0-3.449.016-5.173-.008a.964.964,0,0,0-1.02.58.919.919,0,0,0,.317,1.089c.626.557,1.232,1.126,1.878,1.729ZM28.6,128.118v-4.724a1.416,1.416,0,0,0-1.436-1.422q-1.973-.009-3.946,0a1.548,1.548,0,0,0-1.6,1.6q-.01,4.562,0,9.115a1.723,1.723,0,0,0,1.59,1.612q1.945.017,3.894,0a1.543,1.543,0,0,0,1.505-1.509Q28.608,130.452,28.6,128.118Zm-16.569,1.947h0c0,.964-.009,1.928,0,2.893a1.362,1.362,0,0,0,1.335,1.335q2.058.021,4.117,0a1.526,1.526,0,0,0,1.42-1.424q.02-2.837,0-5.674a1.319,1.319,0,0,0-1.173-1.316c-1.382-.079-2.769-.141-4.151-.1a1.532,1.532,0,0,0-1.573,1.733c.079.846.026,1.7.026,2.556Z" transform="translate(0 -85.656)" fill="#bf4dff"/>
          <path id="Path_53054" data-name="Path 53054" d="M398.916,233.126h4.673a1.638,1.638,0,0,1,1.726,1.727q.008,4.423,0,8.845a1.624,1.624,0,0,1-1.706,1.69c-3.133,0-6.27.076-9.4-.022a6.033,6.033,0,0,1-5.625-5.325,6.14,6.14,0,0,1,1.955-5.309,5.661,5.661,0,0,1,3.924-1.6C395.949,233.114,397.433,233.127,398.916,233.126Zm-1.74,6.119a2.287,2.287,0,1,0-2.253,2.374c1.046.012,2.444-1.221,2.253-2.369Z" transform="translate(-345.318 -207.184)" fill="#bf4dff"/>
          <path id="Path_53055" data-name="Path 53055" d="M156.038,8.7h-32.13l-.018-.072,4.828-1.7L143.085,1.9c1.465-.513,2.922-1.055,4.4-1.539a4.963,4.963,0,0,1,5.118.8,5.927,5.927,0,0,1,1.511,2.114C154.839,5.039,155.4,6.875,156.038,8.7Z" transform="translate(-110.106 0)" fill="#bf4dff"/>
        </g>
      </g>
    </g>
    <path id="Path_53057" data-name="Path 53057" d="M13.4-9.475a4.591,4.591,0,0,1,2.275,1.712A4.442,4.442,0,0,1,16.5-5.175a4.686,4.686,0,0,1-1.637,3.813A7.364,7.364,0,0,1,10.05,0H1.35V-17.8H9.8a6.865,6.865,0,0,1,4.463,1.25,4.07,4.07,0,0,1,1.513,3.3A3.877,3.877,0,0,1,13.4-9.475Zm-3.875-4.95H5.575v3.8h3.95a2.074,2.074,0,0,0,1.512-.525,1.9,1.9,0,0,0,.538-1.425,1.755,1.755,0,0,0-.538-1.35A2.137,2.137,0,0,0,9.525-14.425ZM5.575-3.375H9.8A2.592,2.592,0,0,0,11.538-3.9a1.867,1.867,0,0,0,.613-1.5q0-2.025-2.35-2.025H5.575ZM26.45-5.7v-7.2h3.9V0h-3.8V-1.825A4.71,4.71,0,0,1,22.5.3,4.359,4.359,0,0,1,19.237-.938,4.809,4.809,0,0,1,18.025-4.45V-12.9h3.9v7.675q0,2.2,2.075,2.2a2.374,2.374,0,0,0,1.75-.7A2.671,2.671,0,0,0,26.45-5.7Zm9.975-8.675H32.7v-3.3h3.725ZM36.5,0H32.6V-12.9h3.9Zm6.175,0h-3.9V-17.8h3.9Zm11.15-11.35V-17.8h3.9V0h-3.8V-1.675A4.334,4.334,0,0,1,50.05.3a5.023,5.023,0,0,1-4.1-1.825A7.439,7.439,0,0,1,44.425-6.45a7.439,7.439,0,0,1,1.525-4.925,5.023,5.023,0,0,1,4.1-1.825A4.366,4.366,0,0,1,53.825-11.35Zm-2.7,8.525q2.775,0,2.775-3.625t-2.775-3.625a2.39,2.39,0,0,0-2.025.963,4.526,4.526,0,0,0-.725,2.762Q48.375-2.825,51.125-2.825Zm18.5-11.55H65.9v-3.3h3.725ZM69.7,0H65.8V-12.9h3.9ZM79.825-13.2a4.359,4.359,0,0,1,3.263,1.237A4.809,4.809,0,0,1,84.3-8.45V0H80.4V-7.675q0-2.2-2.075-2.2a2.374,2.374,0,0,0-1.75.7,2.671,2.671,0,0,0-.7,1.975V0h-3.9V-12.9h3.8v1.825A4.71,4.71,0,0,1,79.825-13.2ZM104.65-9.475a4.591,4.591,0,0,1,2.275,1.712,4.442,4.442,0,0,1,.825,2.588,4.686,4.686,0,0,1-1.637,3.813A7.364,7.364,0,0,1,101.3,0H92.6V-17.8h8.45a6.865,6.865,0,0,1,4.463,1.25,4.07,4.07,0,0,1,1.512,3.3A3.877,3.877,0,0,1,104.65-9.475Zm-3.875-4.95h-3.95v3.8h3.95a2.074,2.074,0,0,0,1.512-.525,1.9,1.9,0,0,0,.538-1.425,1.755,1.755,0,0,0-.538-1.35A2.137,2.137,0,0,0,100.775-14.425Zm-3.95,11.05h4.225a2.592,2.592,0,0,0,1.737-.525,1.867,1.867,0,0,0,.613-1.5q0-2.025-2.35-2.025H96.825Zm24,1.825A6.657,6.657,0,0,1,115.9.3a6.657,6.657,0,0,1-4.925-1.85,6.624,6.624,0,0,1-1.85-4.9,6.657,6.657,0,0,1,1.85-4.925A6.655,6.655,0,0,1,115.9-13.2a6.655,6.655,0,0,1,4.925,1.825A6.655,6.655,0,0,1,122.65-6.45,6.622,6.622,0,0,1,120.825-1.55ZM115.9-2.825a2.481,2.481,0,0,0,2.075-.925,4.308,4.308,0,0,0,.725-2.7,4.308,4.308,0,0,0-.725-2.7,2.481,2.481,0,0,0-2.075-.925,2.509,2.509,0,0,0-2.1.925,4.308,4.308,0,0,0-.725,2.7,4.308,4.308,0,0,0,.725,2.7A2.509,2.509,0,0,0,115.9-2.825ZM135.55-1.55A6.656,6.656,0,0,1,130.625.3,6.657,6.657,0,0,1,125.7-1.55a6.624,6.624,0,0,1-1.85-4.9,6.657,6.657,0,0,1,1.85-4.925,6.655,6.655,0,0,1,4.925-1.825,6.655,6.655,0,0,1,4.925,1.825,6.655,6.655,0,0,1,1.825,4.925A6.622,6.622,0,0,1,135.55-1.55Zm-4.925-1.275A2.481,2.481,0,0,0,132.7-3.75a4.308,4.308,0,0,0,.725-2.7,4.308,4.308,0,0,0-.725-2.7,2.481,2.481,0,0,0-2.075-.925,2.509,2.509,0,0,0-2.1.925,4.308,4.308,0,0,0-.725,2.7,4.308,4.308,0,0,0,.725,2.7A2.509,2.509,0,0,0,130.625-2.825ZM152.45,0H148l-3.325-5.325-1.75,1.8V0H139.1V-17.8h3.825v10l4.775-5.1h4.475l-4.85,5Z" transform="translate(238 55)" fill="#bf4dff"/>
  </g>
</svg>
