<svg id="Group_20165" data-name="Group 20165" xmlns="http://www.w3.org/2000/svg" width="35.178" height="35.178" viewBox="0 0 35.178 35.178">
  <rect id="Rectangle_447" data-name="Rectangle 447" width="27.767" height="27.767" transform="translate(3.641 3.372)" fill="#fff"/>
  <path id="Icon_awesome-linkedin" data-name="Icon awesome-linkedin" d="M32.665,2.25H2.5A2.524,2.524,0,0,0,0,4.786V34.892a2.524,2.524,0,0,0,2.5,2.536h30.16a2.53,2.53,0,0,0,2.513-2.536V4.786A2.53,2.53,0,0,0,32.665,2.25ZM10.632,32.4H5.418V15.614H10.64V32.4ZM8.025,13.322A3.023,3.023,0,1,1,11.048,10.3a3.024,3.024,0,0,1-3.023,3.023ZM30.176,32.4H24.962V24.236c0-1.947-.039-4.452-2.709-4.452-2.717,0-3.133,2.12-3.133,4.311V32.4H13.906V15.614h5v2.293h.071A5.492,5.492,0,0,1,23.918,15.2c5.277,0,6.258,3.479,6.258,8Z" transform="translate(0 -2.25)" fill="#0a66c2"/>
</svg>
