<svg id="Group_20164" data-name="Group 20164" xmlns="http://www.w3.org/2000/svg" width="35.25" height="35.25" viewBox="0 0 35.25 35.25">
  <path id="Path_1416" data-name="Path 1416" d="M1274.591,7851.857l17.567-3.29,3.079,5.459-.84,11.688-5.6,9.238-15.678,3.5-5.739-4.62s-1.54-7.138-1.54-7.349,1.051-12.458,1.051-12.458l5.809-2.73Z" transform="translate(-1262.986 -7845.533)" fill="#fff" stroke="#707070" stroke-width="1"/>
  <path id="Icon_awesome-twitter-square" data-name="Icon awesome-twitter-square" d="M31.473,2.25H3.777A3.778,3.778,0,0,0,0,6.027v27.7A3.778,3.778,0,0,0,3.777,37.5h27.7a3.778,3.778,0,0,0,3.777-3.777V6.027A3.778,3.778,0,0,0,31.473,2.25ZM27.626,14.745c.016.22.016.448.016.669A14.582,14.582,0,0,1,12.959,30.1a14.615,14.615,0,0,1-7.923-2.313,10.872,10.872,0,0,0,1.243.063,10.346,10.346,0,0,0,6.4-2.2,5.167,5.167,0,0,1-4.823-3.58,5.562,5.562,0,0,0,2.329-.094A5.161,5.161,0,0,1,6.059,16.9v-.063a5.157,5.157,0,0,0,2.329.653,5.15,5.15,0,0,1-2.3-4.3,5.1,5.1,0,0,1,.7-2.6,14.653,14.653,0,0,0,10.638,5.4,5.171,5.171,0,0,1,8.8-4.713,10.112,10.112,0,0,0,3.273-1.243,5.147,5.147,0,0,1-2.266,2.84,10.269,10.269,0,0,0,2.974-.8A10.862,10.862,0,0,1,27.626,14.745Z" transform="translate(0 -2.25)" fill="#1da1f2"/>
</svg>
