<svg xmlns="http://www.w3.org/2000/svg" width="433.394" height="114" viewBox="0 0 433.394 114">
  <g id="Group_42065" data-name="Group 42065" transform="translate(1294 1692)">
    <g id="Group_42064" data-name="Group 42064" transform="translate(-1882.335 -2323.335)">
      <path id="Subtraction_2" data-name="Subtraction 2" d="M1804.334,2437.335h-50a31.973,31.973,0,0,1-32-32v-50a31.974,31.974,0,0,1,32-32h50a31.974,31.974,0,0,1,32,32v50a31.974,31.974,0,0,1-32,32Zm-37.031-95.217a14.017,14.017,0,0,0-14.015,14.016v52.113a14.015,14.015,0,0,0,13.356,14v-33.89l8.22-6.165h7.193a3.083,3.083,0,0,0,0-6.165h-7.193l-8.22-8.219v-6.165h16.439a16.44,16.44,0,0,1,0,32.88h-2.055v27.27a40.073,40.073,0,0,0-6.165-79.673Zm-2.713,41.1a5.138,5.138,0,1,1,5.137-5.138A5.143,5.143,0,0,1,1764.59,2383.218Z" transform="translate(-1134 -1692)" fill="#8a5bec"/>
    </g>
    <path id="Path_34831" data-name="Path 34831" d="M-133.747-35.7a13.016,13.016,0,0,1,9.461,3.646,12.363,12.363,0,0,1,3.748,9.257,12.4,12.4,0,0,1-3.774,9.282,12.989,12.989,0,0,1-9.435,3.672H-139.1V0h-9.843V-35.7Zm-1.173,17.238a4.176,4.176,0,0,0,3.086-1.2,4.242,4.242,0,0,0,1.2-3.136,4.6,4.6,0,0,0-.536-2.219,3.9,3.9,0,0,0-1.5-1.556,4.4,4.4,0,0,0-2.244-.561H-139.1v8.67ZM-98.251.918q-8.619,0-14.152-5.279a17.827,17.827,0,0,1-5.534-13.49A17.827,17.827,0,0,1-112.4-31.34q5.534-5.279,14.152-5.279,8.568,0,14.076,5.279a17.868,17.868,0,0,1,5.508,13.49,17.868,17.868,0,0,1-5.508,13.49Q-89.683.918-98.251.918Zm-6.757-11.883a9.115,9.115,0,0,0,6.757,2.7,8.947,8.947,0,0,0,6.706-2.7,9.472,9.472,0,0,0,2.627-6.885,9.472,9.472,0,0,0-2.627-6.885,8.947,8.947,0,0,0-6.706-2.7,9.115,9.115,0,0,0-6.757,2.7,9.374,9.374,0,0,0-2.677,6.885A9.374,9.374,0,0,0-105.009-10.965ZM-60.97.867q-6.63,0-10.506-3.29a11.3,11.3,0,0,1-3.876-9.1H-65.2A3.4,3.4,0,0,0-64-8.721a4.592,4.592,0,0,0,2.984.969,4.907,4.907,0,0,0,2.83-.816,2.529,2.529,0,0,0,1.2-2.193,2.705,2.705,0,0,0-.1-.79,1.68,1.68,0,0,0-.382-.637q-.281-.306-.535-.536a2.932,2.932,0,0,0-.791-.459q-.535-.229-.893-.357t-1.1-.332q-.74-.2-1.122-.306t-1.25-.306l-2.3-.612q-.765-.2-2.244-.714A12.854,12.854,0,0,1-70-16.8a16.456,16.456,0,0,1-1.887-1.351,6.758,6.758,0,0,1-1.632-1.836,10.634,10.634,0,0,1-.969-2.4,11.29,11.29,0,0,1-.408-3.111,9.918,9.918,0,0,1,3.6-8.134q3.6-2.932,9.971-2.933t9.92,3.111a10.807,10.807,0,0,1,3.544,8.568h-9.843a2.955,2.955,0,0,0-1.071-2.473,4.16,4.16,0,0,0-2.652-.841,4.672,4.672,0,0,0-2.448.612,2,2,0,0,0-1.02,1.836,1.913,1.913,0,0,0,.2.867,2.071,2.071,0,0,0,.663.74,7.633,7.633,0,0,0,.893.561,8.874,8.874,0,0,0,1.275.51q.842.281,1.377.434t1.658.408q1.53.408,2.346.637t2.32.765a13.216,13.216,0,0,1,2.346,1.045,21.75,21.75,0,0,1,1.964,1.377,6.532,6.532,0,0,1,1.709,1.887,11.79,11.79,0,0,1,1.02,2.448,10.667,10.667,0,0,1,.433,3.111,10.478,10.478,0,0,1-3.927,8.747Q-54.544.867-60.97.867ZM-15.478-35.7v8.874h-9.741V0h-9.843V-26.826h-9.69V-35.7ZM-1.3-8.517H12.164V0H-11.092V-35.7H11.756v8.517H-1.3v5.253H10.43v8.058H-1.3ZM37,0,31.187-10.914H27.668V0H17.825V-35.7H33.278a14.47,14.47,0,0,1,6.834,1.581,11.647,11.647,0,0,1,4.718,4.488,12.739,12.739,0,0,1,1.708,6.579A12.291,12.291,0,0,1,45.875-19a10.914,10.914,0,0,1-1.938,3.443,11.134,11.134,0,0,1-3.06,2.55L47.966,0ZM27.668-26.979v7.752h4.488A4.509,4.509,0,0,0,35.318-20.3a3.62,3.62,0,0,0,1.173-2.8,3.849,3.849,0,0,0-.51-1.989,3.593,3.593,0,0,0-1.5-1.377,5.019,5.019,0,0,0-2.32-.51ZM75.812,0,73.823-5.814H61.175L59.186,0H48.68L62.7-35.7h9.588L86.624,0ZM71.426-13.515,67.5-24.582,63.572-13.515ZM105.29-35.7a13.016,13.016,0,0,1,9.461,3.646A12.363,12.363,0,0,1,118.5-22.8a12.4,12.4,0,0,1-3.774,9.282,12.989,12.989,0,0,1-9.435,3.672H99.935V0H90.092V-35.7Zm-1.173,17.238a4.176,4.176,0,0,0,3.085-1.2,4.242,4.242,0,0,0,1.2-3.136,4.6,4.6,0,0,0-.535-2.219,3.9,3.9,0,0,0-1.5-1.556,4.4,4.4,0,0,0-2.244-.561H99.935v8.67ZM138.184-35.7a13.016,13.016,0,0,1,9.46,3.646,12.363,12.363,0,0,1,3.749,9.257,12.4,12.4,0,0,1-3.774,9.282,12.989,12.989,0,0,1-9.435,3.672h-5.355V0h-9.843V-35.7Zm-1.173,17.238a4.176,4.176,0,0,0,3.086-1.2,4.242,4.242,0,0,0,1.2-3.136,4.6,4.6,0,0,0-.536-2.219,3.9,3.9,0,0,0-1.5-1.556,4.4,4.4,0,0,0-2.244-.561h-4.182v8.67Z" transform="translate(-1012 -1619)" fill="#32385a"/>
  </g>
</svg>
