<svg xmlns="http://www.w3.org/2000/svg" xmlns:xlink="http://www.w3.org/1999/xlink" width="46" height="46" viewBox="0 0 46 46">
  <defs>
    <linearGradient id="linear-gradient" x1="0.295" y1="0.119" x2="0.779" y2="0.908" gradientUnits="objectBoundingBox">
      <stop offset="0" stop-color="#4c58c5"/>
      <stop offset="0.358" stop-color="#d9436d"/>
      <stop offset="0.708" stop-color="#ef4d4a"/>
      <stop offset="1" stop-color="#f6cc50"/>
    </linearGradient>
  </defs>
  <g id="insta" transform="translate(-658 -1023)">
    <circle id="Ellipse_3428" data-name="Ellipse 3428" cx="23" cy="23" r="23" transform="translate(658 1023)" fill="url(#linear-gradient)"/>
    <path id="Icon_awesome-instagram" data-name="Icon awesome-instagram" d="M9.246,6.743a4.742,4.742,0,1,0,4.742,4.742A4.734,4.734,0,0,0,9.246,6.743Zm0,7.825a3.083,3.083,0,1,1,3.083-3.083,3.088,3.088,0,0,1-3.083,3.083Zm6.042-8.019a1.106,1.106,0,1,1-1.106-1.106A1.1,1.1,0,0,1,15.288,6.549Zm3.141,1.123A5.474,5.474,0,0,0,16.935,3.8,5.509,5.509,0,0,0,13.06,2.3c-1.527-.087-6.1-.087-7.631,0a5.5,5.5,0,0,0-3.875,1.49A5.491,5.491,0,0,0,.06,7.668c-.087,1.527-.087,6.1,0,7.631a5.473,5.473,0,0,0,1.494,3.875,5.517,5.517,0,0,0,3.875,1.494c1.527.087,6.1.087,7.631,0a5.474,5.474,0,0,0,3.875-1.494A5.51,5.51,0,0,0,18.429,15.3c.087-1.527.087-6.1,0-7.627Zm-1.973,9.265A3.121,3.121,0,0,1,14.7,18.7c-1.217.483-4.106.371-5.452.371s-4.238.107-5.452-.371a3.121,3.121,0,0,1-1.758-1.758c-.483-1.217-.371-4.106-.371-5.452s-.107-4.238.371-5.452A3.121,3.121,0,0,1,3.795,4.275C5.012,3.793,7.9,3.9,9.246,3.9s4.238-.107,5.452.371a3.121,3.121,0,0,1,1.758,1.758c.483,1.217.371,4.106.371,5.452S16.939,15.724,16.456,16.937Z" transform="translate(671.756 1034.515)" fill="#fff"/>
  </g>
</svg>
