<svg xmlns="http://www.w3.org/2000/svg" width="46" height="46" viewBox="0 0 46 46">
  <g id="linkedin" transform="translate(-715 -1023)">
    <circle id="Ellipse_3429" data-name="Ellipse 3429" cx="23" cy="23" r="23" transform="translate(715 1023)" fill="#0077b5"/>
    <path id="Icon_awesome-linkedin" data-name="Icon awesome-linkedin" d="M17.174,2.25H1.317A1.327,1.327,0,0,0,0,3.583V19.412a1.327,1.327,0,0,0,1.317,1.333H17.174A1.33,1.33,0,0,0,18.5,19.412V3.583A1.33,1.33,0,0,0,17.174,2.25ZM5.59,18.1H2.849V9.276H5.594V18.1ZM4.219,8.071A1.589,1.589,0,1,1,5.809,6.482,1.59,1.59,0,0,1,4.219,8.071ZM15.865,18.1H13.124V13.809c0-1.024-.021-2.341-1.424-2.341-1.428,0-1.647,1.115-1.647,2.266V18.1H7.311V9.276h2.63v1.205h.037a2.887,2.887,0,0,1,2.6-1.424c2.774,0,3.29,1.829,3.29,4.207Z" transform="translate(728.752 1034.503)" fill="#fff"/>
  </g>
</svg>
