<svg xmlns="http://www.w3.org/2000/svg" width="120.39" height="48.012" viewBox="0 0 120.39 48.012">
  <g id="Group_43427" data-name="Group 43427" transform="translate(14557 15064)">
    <g id="Layer_2" data-name="Layer 2" transform="translate(-14557 -15064)">
      <g id="Layer_1" data-name="Layer 1" transform="translate(0 0)">
        <path id="Path_55285" data-name="Path 55285" d="M67.864,258.136a2.037,2.037,0,0,1-.194.9,1.87,1.87,0,0,1-.568.686,2.849,2.849,0,0,1-.912.443,4.335,4.335,0,0,1-1.224.158H61.884v1.513H60.07v-3.024h5.072a1.028,1.028,0,0,0,.655-.186.6.6,0,0,0,.235-.5.586.586,0,0,0-.235-.49,1.045,1.045,0,0,0-.655-.182H60.07l1.206-1.538h3.7a4.231,4.231,0,0,1,1.224.162,2.733,2.733,0,0,1,.908.457,1.943,1.943,0,0,1,.563.694,2.071,2.071,0,0,1,.194.9" transform="translate(-51.734 -220.402)" fill="#d8021a"/>
        <path id="Path_55286" data-name="Path 55286" d="M143.864,260.314l-1.18,1.521h-5.2V255.92H139.3v4.394Z" transform="translate(-118.401 -220.404)" fill="#d8021a"/>
        <path id="Path_55287" data-name="Path 55287" d="M200.01,261.226l1.1-1.527h2.03a4.134,4.134,0,0,1,.5.018c-.082-.107-.178-.24-.286-.4s-.214-.314-.312-.455l-1.057-1.565-2.764,3.926H197.06l3.777-5.343a2.045,2.045,0,0,1,.468-.459,1.182,1.182,0,0,1,.713-.2,1.2,1.2,0,0,1,.694.19,1.816,1.816,0,0,1,.47.473l3.682,5.35Z" transform="translate(-169.713 -219.795)" fill="#d8021a"/>
        <path id="Path_55288" data-name="Path 55288" d="M277.369,255.92l-3.5,3.961v1.954h-1.832v-1.964l-3.592-3.951h2.341l1.41,1.645c.046.053.108.122.185.207l.237.271.229.265a1.91,1.91,0,0,1,.15.185c.058-.082.139-.194.255-.336s.278-.341.484-.6l1.339-1.635Z" transform="translate(-231.195 -220.404)" fill="#d8021a"/>
        <path id="Path_55289" data-name="Path 55289" d="M397.035,260.314l-1.181,1.521h-5.2V255.92h1.824v4.394Z" transform="translate(-336.437 -220.404)" fill="#d8021a"/>
        <path id="Path_55290" data-name="Path 55290" d="M456.956,255.21a5.765,5.765,0,0,1,3.227.734,3.041,3.041,0,0,1,0,4.642,7.488,7.488,0,0,1-6.467,0,3.049,3.049,0,0,1,0-4.642,5.78,5.78,0,0,1,3.232-.734m0,4.571a9.806,9.806,0,0,0,1.162-.057,2.057,2.057,0,0,0,.77-.226.979.979,0,0,0,.427-.464,2.336,2.336,0,0,0,0-1.547.959.959,0,0,0-.427-.459,2.082,2.082,0,0,0-.77-.221,11.62,11.62,0,0,0-2.325,0,2.081,2.081,0,0,0-.77.221.959.959,0,0,0-.427.459,2.336,2.336,0,0,0,0,1.547.98.98,0,0,0,.427.464,2.05,2.05,0,0,0,.77.226,9.816,9.816,0,0,0,1.163.057" transform="translate(-389.833 -219.793)" fill="#d8021a"/>
        <path id="Path_55291" data-name="Path 55291" d="M543.117,259.278q0,2.68-3.672,2.68a8.73,8.73,0,0,1-1.832-.168,3.652,3.652,0,0,1-1.263-.5,2.053,2.053,0,0,1-.731-.833,2.75,2.75,0,0,1-.233-1.173V255.95H537.2v3.331a1.463,1.463,0,0,0,.089.548.7.7,0,0,0,.329.358,1.932,1.932,0,0,0,.683.2,9.384,9.384,0,0,0,1.145.057,5.188,5.188,0,0,0,.881-.062,1.456,1.456,0,0,0,.563-.2.814.814,0,0,0,.3-.362,1.385,1.385,0,0,0,.092-.532V255.95h1.832Z" transform="translate(-461.086 -220.43)" fill="#d8021a"/>
        <path id="Path_55292" data-name="Path 55292" d="M620.614,258.843a2.711,2.711,0,0,1-.269,1.2,2.949,2.949,0,0,1-.74.955,3.492,3.492,0,0,1-1.123.631,4.218,4.218,0,0,1-1.418.23H613.12v-3.683h1.832v2.166h2.112a2.311,2.311,0,0,0,.7-.1,1.666,1.666,0,0,0,.555-.287,1.387,1.387,0,0,0,.362-.447,1.326,1.326,0,0,0,0-1.153,1.366,1.366,0,0,0-.37-.457,1.851,1.851,0,0,0-.555-.3,2.072,2.072,0,0,0-.694-.111H613.12l1.161-1.538h2.776a4.621,4.621,0,0,1,1.427.211,3.432,3.432,0,0,1,1.123.6,2.722,2.722,0,0,1,.735.919,2.607,2.607,0,0,1,.265,1.171" transform="translate(-528.033 -220.429)" fill="#d8021a"/>
        <path id="Path_55293" data-name="Path 55293" d="M695.212,260.314l-1.17,1.521H688.37V255.92H695.2l-1.181,1.538H690.2v.708h4.667l-1.048,1.343H690.2v.8Z" transform="translate(-592.84 -220.404)" fill="#d8021a"/>
        <path id="Path_55294" data-name="Path 55294" d="M765.017,261.835h-2.441l-1.306-1.565h-2.806v1.565H756.64v-3.024h5.125a1.347,1.347,0,0,0,.713-.178.541.541,0,0,0,.291-.486.579.579,0,0,0-.264-.518,1.349,1.349,0,0,0-.741-.172H756.64l1.189-1.538h3.787a6.172,6.172,0,0,1,1.038.092,3.219,3.219,0,0,1,.971.332,2.1,2.1,0,0,1,.726.647,1.772,1.772,0,0,1,.286,1.042,2,2,0,0,1-.105.655,1.8,1.8,0,0,1-.788.971,2,2,0,0,1-.647.243,4.123,4.123,0,0,1,.334.291q.185.178.493.486Z" transform="translate(-651.636 -220.404)" fill="#d8021a"/>
        <path id="Path_55295" data-name="Path 55295" d="M416.519,21.292V.5h-8.546v17.84l-18.535-16.7A5.988,5.988,0,0,0,387.426.294,5.489,5.489,0,0,0,385.684,0a5.943,5.943,0,0,0-1.921.316,4.355,4.355,0,0,0-1.629,1,4.976,4.976,0,0,0-1.128,1.771,7,7,0,0,0-.429,2.588V14.7l8.5,12.351V13.03l9.17,8.264h18.273Z" transform="translate(-327.76 0)" fill="#04192e"/>
        <path id="Path_55296" data-name="Path 55296" d="M675.391,11.5,681.4,3.6H655.135q-1.478,0-2.776.126v8.059a6.036,6.036,0,0,1,2.058-.287Z" transform="translate(-561.828 -3.1)" fill="#04192e"/>
        <path id="Path_55297" data-name="Path 55297" d="M560.182,95.585a1.857,1.857,0,0,1,.769,1.681,1.9,1.9,0,0,1-.769,1.7,4.429,4.429,0,0,1-2.443.525l-35.689-.067,7.4,6.736.157.148a5.829,5.829,0,0,0,1.341.921l26.066.067a22.391,22.391,0,0,0,5.9-.68,11.081,11.081,0,0,0,4.047-1.953,7.381,7.381,0,0,0,2.305-3.132,11.439,11.439,0,0,0,.723-4.177,7.174,7.174,0,0,0-2.893-6.245q-2.894-2.072-8.454-2.058H542.187a5.672,5.672,0,0,1-2.058-.3v6.313c.373.018.759.026,1.155.026h16.456a4.606,4.606,0,0,1,2.442.5" transform="translate(-449.602 -76.434)" fill="#04192e"/>
        <path id="Path_55298" data-name="Path 55298" d="M9.4,22.847h7.762s-3.982-1.188-4.277-1.231,1.228-6.164,1.228-6.164H9.4V11.5H25.181l4.247-6.013A11.889,11.889,0,0,1,31.13,3.6H0V33.968H9.312l.092-.13Z" transform="translate(0 -3.1)" fill="#04192e"/>
        <path id="Path_55299" data-name="Path 55299" d="M123.69,96.37h0l5.226-7.4Z" transform="translate(-106.525 -76.623)" fill="#04192e"/>
        <path id="Path_55300" data-name="Path 55300" d="M114.12,3.4A9.255,9.255,0,0,0,111.7.971,6.153,6.153,0,0,0,108.153,0a6.089,6.089,0,0,0-3.662,1.044A10.5,10.5,0,0,0,102.1,3.4L82.7,30.868h50.319Zm-6.26-2.276.852,2.619h2.756l-2.23,1.625L110.092,8,107.86,6.374,105.627,8l.852-2.624-2.227-1.625h2.759ZM96.342,12.293l2.137,1.744,2.319-1.493-1,2.572,2.137,1.743L99.182,16.7l-1,2.572-.7-2.667-2.755-.155,2.309-1.493ZM91.415,28.061l-.674,2.676-1.027-2.565-2.752.186,2.116-1.768-1.027-2.56L90.388,25.5,92.5,23.731l-.673,2.674,2.336,1.467Zm18.677,2.7-2.232-1.622-2.232,1.621.852-2.623-2.229-1.621h2.759l.849-2.623.853,2.623h2.755l-2.232,1.622Zm-10.816-7.7h0l8.7-12.351,8.5,12.437Zm18.818-6.467-.7,2.667-1-2.572-2.755.155L115.77,15.1l-1-2.572,2.323,1.488,2.144-1.739-.7,2.667,2.319,1.495Zm9.424,7.455-1.027,2.559,2.118,1.768-2.752-.185L124.83,30.75l-.674-2.674-2.752-.182,2.336-1.468-.674-2.674,2.118,1.768Z" transform="translate(-71.223 0)" fill="#d8021a"/>
        <path id="Path_55301" data-name="Path 55301" d="M93.858,89s-1.527,6.127-1.228,6.169S96.907,96.4,96.907,96.4l5.226-7.4Z" transform="translate(-79.742 -76.649)" fill="#04192e"/>
        <path id="Path_55302" data-name="Path 55302" d="M240.227,12.365l-.852,2.624,2.233-1.622,2.232,1.622-.852-2.624,2.229-1.625H242.46l-.852-2.62-.853,2.62H238Zm.6-1.527.781-2.4.78,2.4h2.523l-2.041,1.484.78,2.4-2.041-1.482-2.043,1.482.78-2.4L238.3,10.844Z" transform="translate(-204.971 -6.993)" fill="#04192e"/>
        <path id="Path_55303" data-name="Path 55303" d="M242.46,174.823l-.852-2.623-.852,2.623H238l2.232,1.622-.852,2.623,2.229-1.622,2.233,1.621-.853-2.623,2.229-1.621Zm1.189,3.984-2.041-1.484-2.041,1.484.78-2.4-2.041-1.484h2.523l.78-2.4.78,2.4h2.523l-2.041,1.484Z" transform="translate(-204.971 -148.303)" fill="#04192e"/>
        <path id="Path_55304" data-name="Path 55304" d="M118.28,173.677l.673-2.677-2.118,1.768L114.5,171.3l1.027,2.56-2.116,1.768,2.752-.187,1.027,2.56.674-2.674,2.752-.186Zm-.5,1.558-.618,2.448-.94-2.343-2.517.169,1.943-1.617-.945-2.338,2.136,1.342,1.943-1.617-.616,2.447,2.137,1.343Z" transform="translate(-97.671 -147.269)" fill="#04192e"/>
        <path id="Path_55305" data-name="Path 55305" d="M172.049,92.9l.7,2.667,1-2.572,2.755.154L174.369,91.4l1-2.572-2.319,1.493-2.133-1.744.694,2.667-2.319,1.493Zm-.963-4.044,1.955,1.59,2.122-1.367-.913,2.359,1.955,1.6-2.52-.139-.913,2.352-.644-2.442-2.52-.139L171.73,91.3Z" transform="translate(-145.797 -76.287)" fill="#04192e"/>
        <path id="Path_55306" data-name="Path 55306" d="M363.251,171.12l.674,2.674-2.336,1.472,2.752.186.673,2.676,1.028-2.56,2.752.186-2.118-1.769,1.027-2.559-2.336,1.467Zm4.247.548-.94,2.349,1.943,1.618-2.519-.171-.94,2.343-.62-2.454-2.517-.171,2.136-1.342-.616-2.448,1.943,1.618Z" transform="translate(-311.41 -147.373)" fill="#04192e"/>
        <path id="Path_55307" data-name="Path 55307" d="M311.207,88.47l-2.144,1.739-2.319-1.488.994,2.572L305.6,93.037l2.755-.155,1,2.572.7-2.667,2.755-.154-2.319-1.495Zm1.3,4.079-2.52.139-.644,2.441-.913-2.359-2.52.139,1.948-1.589-.913-2.359,2.122,1.367,1.955-1.6-.644,2.449Z" transform="translate(-263.19 -76.192)" fill="#04192e"/>
        <path id="Path_55308" data-name="Path 55308" d="M242.331,110.453l-.78,2.4,2.043-1.484,2.041,1.484-.78-2.4,2.041-1.484h-2.523l-.78-2.4-.78,2.4H240.29Z" transform="translate(-206.943 -91.781)" fill="#04192e"/>
        <path id="Path_55309" data-name="Path 55309" d="M90.685,316.63l-.78,2.788h-.658l-.525-1.986-.547,1.986-.655,0-.751-2.792h.6l.493,2.165.566-2.165h.623l.536,2.152.5-2.152Z" transform="translate(-74.728 -272.689)" fill="#04192e"/>
        <path id="Path_55310" data-name="Path 55310" d="M125.383,316.63v2.788h-.559v-1.187h-1.195v1.187h-.559V316.63h.559v1.146h1.195V316.63Z" transform="translate(-105.991 -272.689)" fill="#04192e"/>
        <path id="Path_55311" data-name="Path 55311" d="M149.739,317.055v.7h.938v.443h-.938v.74H150.8v.455H149.18V316.6H150.8v.455Z" transform="translate(-128.477 -272.663)" fill="#04192e"/>
        <path id="Path_55312" data-name="Path 55312" d="M172.346,319.392h-.559l-1.267-1.914v1.914h-.559V316.6h.559l1.267,1.918V316.6h.559Z" transform="translate(-146.374 -272.663)" fill="#04192e"/>
        <path id="Path_55313" data-name="Path 55313" d="M209.552,318.861h-1.11l-.183.532h-.588l1-2.792h.651l1,2.792h-.591Zm-.151-.447-.4-1.167-.4,1.167Z" transform="translate(-178.85 -272.663)" fill="#04192e"/>
        <path id="Path_55314" data-name="Path 55314" d="M235.549,318.974h.919v.444H234.99V316.63h.559Z" transform="translate(-202.379 -272.689)" fill="#04192e"/>
        <path id="Path_55315" data-name="Path 55315" d="M254.229,318.974h.92v.444H253.67V316.63h.559Z" transform="translate(-218.467 -272.689)" fill="#04192e"/>
        <path id="Path_55316" data-name="Path 55316" d="M284.489,318.59a1.423,1.423,0,0,1-.57-.11.972.972,0,0,1-.416-.326.863.863,0,0,1-.162-.509v-.117h.823l.008.107a.278.278,0,0,0,.083.2.33.33,0,0,0,.225.069.354.354,0,0,0,.233-.067.19.19,0,0,0,.071-.158.167.167,0,0,0-.044-.124.392.392,0,0,0-.148-.1c-.075-.031-.176-.062-.3-.1a3.424,3.424,0,0,1-.459-.164.9.9,0,0,1-.334-.269.787.787,0,0,1-.146-.493.876.876,0,0,1,.139-.5.916.916,0,0,1,.4-.323,1.4,1.4,0,0,1,.555-.107,1.225,1.225,0,0,1,.772.235.885.885,0,0,1,.341.667l.01.124h-.848v-.11a.208.208,0,0,0-.08-.155.354.354,0,0,0-.229-.067.277.277,0,0,0-.186.055.185.185,0,0,0-.058.157.139.139,0,0,0,.04.1.433.433,0,0,0,.147.094,2.779,2.779,0,0,0,.3.1,3.53,3.53,0,0,1,.459.167.911.911,0,0,1,.337.278.783.783,0,0,1,.148.49.9.9,0,0,1-.139.476.926.926,0,0,1-.386.348,1.284,1.284,0,0,1-.583.126" transform="translate(-244.019 -271.718)" fill="#04192e"/>
        <path id="Path_55317" data-name="Path 55317" d="M284.678,319.184a.863.863,0,0,1-.369-.287.762.762,0,0,1-.139-.444h.6a.387.387,0,0,0,.122.278.429.429,0,0,0,.3.1.459.459,0,0,0,.308-.094.307.307,0,0,0,.111-.246.278.278,0,0,0-.075-.2.525.525,0,0,0-.19-.126,2.911,2.911,0,0,0-.314-.1,3.487,3.487,0,0,1-.441-.158.768.768,0,0,1-.291-.236.669.669,0,0,1-.122-.416.762.762,0,0,1,.124-.432.792.792,0,0,1,.348-.278,1.26,1.26,0,0,1,.511-.1,1.11,1.11,0,0,1,.7.21.779.779,0,0,1,.3.586h-.616a.322.322,0,0,0-.121-.239.464.464,0,0,0-.3-.093.39.39,0,0,0-.261.083.3.3,0,0,0-.1.244.251.251,0,0,0,.075.186.555.555,0,0,0,.183.119,3.089,3.089,0,0,0,.309.105,3.466,3.466,0,0,1,.444.16.815.815,0,0,1,.3.24.673.673,0,0,1,.124.416.785.785,0,0,1-.117.416.808.808,0,0,1-.339.305,1.159,1.159,0,0,1-.531.114,1.33,1.33,0,0,1-.526-.1" transform="translate(-244.734 -272.527)" fill="#04192e"/>
        <path id="Path_55318" data-name="Path 55318" d="M306.532,318.818v-2.337h-.742V315.8h2.276v.681h-.744v2.337Z" transform="translate(-263.353 -271.974)" fill="#04192e"/>
        <path id="Path_55319" data-name="Path 55319" d="M308.666,316.63v.451h-.744v2.337h-.559v-2.337h-.742v-.451Z" transform="translate(-264.068 -272.689)" fill="#04192e"/>
        <path id="Path_55320" data-name="Path 55320" d="M329.488,318.793l-.185-.532h-.946l-.185.532h-.833l1.085-3.023h.81l1.087,3.023Zm-.416-1.209-.241-.694-.242.694Z" transform="translate(-281.913 -271.948)" fill="#04192e"/>
        <path id="Path_55321" data-name="Path 55321" d="M330.4,318.861h-1.11l-.185.532h-.587l1-2.792h.651l1,2.792h-.591Zm-.15-.447-.4-1.167-.4,1.167Z" transform="translate(-282.929 -272.663)" fill="#04192e"/>
        <path id="Path_55322" data-name="Path 55322" d="M356.488,318.815l-.615-1.087h-.082v1.087H355V315.8h1.162a1.324,1.324,0,0,1,.6.126.9.9,0,0,1,.389.351.96.96,0,0,1,.13.491.944.944,0,0,1-.182.565.866.866,0,0,1-.4.3l.694,1.182Zm-.344-1.742a.365.365,0,0,0,.26-.078.3.3,0,0,0,.076-.223.278.278,0,0,0-.075-.214.373.373,0,0,0-.261-.074h-.353v.588Z" transform="translate(-305.734 -271.971)" fill="#04192e"/>
        <path id="Path_55323" data-name="Path 55323" d="M357.3,319.414l-.616-1.087h-.264v1.087h-.555v-2.788h1.046a1.221,1.221,0,0,1,.555.114.794.794,0,0,1,.341.307.856.856,0,0,1,.114.434.833.833,0,0,1-.16.5.816.816,0,0,1-.476.305l.668,1.131Zm-.88-1.506h.468a.475.475,0,0,0,.34-.11.417.417,0,0,0,.111-.307.393.393,0,0,0-.111-.3.48.48,0,0,0-.34-.105h-.468Z" transform="translate(-306.484 -272.685)" fill="#04192e"/>
        <path id="Path_55324" data-name="Path 55324" d="M379.578,318.587a1.427,1.427,0,0,1-.57-.11.985.985,0,0,1-.416-.326.873.873,0,0,1-.161-.509v-.117h.823l.007.107a.278.278,0,0,0,.085.2.319.319,0,0,0,.225.069.357.357,0,0,0,.233-.067.19.19,0,0,0,.071-.158.167.167,0,0,0-.044-.124.4.4,0,0,0-.15-.1,2.956,2.956,0,0,0-.3-.1,3.468,3.468,0,0,1-.458-.164.88.88,0,0,1-.334-.269.788.788,0,0,1-.147-.493.866.866,0,0,1,.139-.5.9.9,0,0,1,.4-.323,1.4,1.4,0,0,1,.555-.107,1.225,1.225,0,0,1,.784.235.886.886,0,0,1,.341.668l.01.124h-.849v-.11a.2.2,0,0,0-.08-.155.35.35,0,0,0-.228-.067.277.277,0,0,0-.187.056.185.185,0,0,0-.057.157.139.139,0,0,0,.04.1.441.441,0,0,0,.146.094,3,3,0,0,0,.3.1,3.456,3.456,0,0,1,.459.167.927.927,0,0,1,.339.278.791.791,0,0,1,.147.49.918.918,0,0,1-.132.476.934.934,0,0,1-.386.348,1.285,1.285,0,0,1-.584.126" transform="translate(-325.913 -271.715)" fill="#04192e"/>
        <path id="Path_55325" data-name="Path 55325" d="M379.759,319.184a.867.867,0,0,1-.371-.287.75.75,0,0,1-.139-.444h.6a.387.387,0,0,0,.122.278.434.434,0,0,0,.3.1.454.454,0,0,0,.307-.094.3.3,0,0,0,.112-.246.278.278,0,0,0-.076-.2.513.513,0,0,0-.19-.126,2.827,2.827,0,0,0-.314-.1,3.657,3.657,0,0,1-.441-.158.79.79,0,0,1-.291-.236.677.677,0,0,1-.122-.416.752.752,0,0,1,.125-.432.788.788,0,0,1,.347-.278,1.263,1.263,0,0,1,.512-.1,1.11,1.11,0,0,1,.7.21.777.777,0,0,1,.3.586h-.615A.323.323,0,0,0,380.5,317a.46.46,0,0,0-.3-.093.391.391,0,0,0-.262.083.3.3,0,0,0-.1.244.25.25,0,0,0,.074.186.59.59,0,0,0,.183.119,3.207,3.207,0,0,0,.309.105,3.477,3.477,0,0,1,.444.16.814.814,0,0,1,.3.24.673.673,0,0,1,.124.416.8.8,0,0,1-.115.416.812.812,0,0,1-.34.305,1.151,1.151,0,0,1-.531.114,1.32,1.32,0,0,1-.525-.1" transform="translate(-326.619 -272.527)" fill="#04192e"/>
        <path id="Path_55326" data-name="Path 55326" d="M415.74,318.861h-1.11l-.183.532h-.587l1-2.792h.652l1,2.792h-.591Zm-.153-.447-.4-1.167-.4,1.167Z" transform="translate(-356.426 -272.663)" fill="#04192e"/>
        <path id="Path_55327" data-name="Path 55327" d="M442.634,319.414l-.615-1.087h-.264v1.087H441.2v-2.788h1.046a1.215,1.215,0,0,1,.555.114.777.777,0,0,1,.341.307.842.842,0,0,1,.114.434.833.833,0,0,1-.16.5.813.813,0,0,1-.475.305l.666,1.131Zm-.878-1.506h.466a.472.472,0,0,0,.34-.11.416.416,0,0,0,.112-.307.388.388,0,0,0-.112-.3.477.477,0,0,0-.34-.105h-.466Z" transform="translate(-379.972 -272.685)" fill="#04192e"/>
        <path id="Path_55328" data-name="Path 55328" d="M465.649,317.055v.7h.938v.443h-.938v.74h1.059v.455H465.09V316.6h1.618v.455Z" transform="translate(-400.546 -272.663)" fill="#04192e"/>
        <path id="Path_55329" data-name="Path 55329" d="M498.876,318.861h-1.11l-.183.532H497l1-2.792h.652l1,2.792h-.591Zm-.153-.447-.4-1.167-.4,1.167Z" transform="translate(-428.028 -272.663)" fill="#04192e"/>
        <path id="Path_55330" data-name="Path 55330" d="M524.829,318.974h.92v.444H524.27V316.63h.559Z" transform="translate(-451.514 -272.689)" fill="#04192e"/>
        <rect id="Rectangle_18037" data-name="Rectangle 18037" width="0.559" height="2.788" transform="translate(75.35 43.941)" fill="#04192e"/>
        <path id="Path_55331" data-name="Path 55331" d="M557.526,317.244a.662.662,0,0,0-.264-.268.8.8,0,0,0-.391-.092.857.857,0,0,0-.44.112.766.766,0,0,0-.3.319,1.039,1.039,0,0,0-.107.479,1.027,1.027,0,0,0,.11.489.786.786,0,0,0,.305.319.9.9,0,0,0,.455.111.79.79,0,0,0,.525-.169.806.806,0,0,0,.266-.473h-.959v-.427h1.511v.487a1.322,1.322,0,0,1-.24.54,1.35,1.35,0,0,1-.473.4,1.388,1.388,0,0,1-.649.15,1.456,1.456,0,0,1-.729-.182,1.317,1.317,0,0,1-.512-.505,1.452,1.452,0,0,1-.186-.736,1.468,1.468,0,0,1,.186-.737,1.312,1.312,0,0,1,.512-.507,1.557,1.557,0,0,1,1.543.047,1.185,1.185,0,0,1,.48.645Z" transform="translate(-478.365 -272.465)" fill="#04192e"/>
        <path id="Path_55332" data-name="Path 55332" d="M586.4,319.392h-.559l-1.267-1.914v1.914h-.559V316.6h.559l1.267,1.918V316.6h.559Z" transform="translate(-502.963 -272.663)" fill="#04192e"/>
        <path id="Path_55333" data-name="Path 55333" d="M611.2,317.055v.7h.938v.443H611.2v.74h1.059v.455H610.64V316.6h1.618v.455Z" transform="translate(-525.897 -272.663)" fill="#04192e"/>
        <path id="Path_55334" data-name="Path 55334" d="M633.157,316.8a1.227,1.227,0,0,1,.515.49,1.466,1.466,0,0,1,.179.737,1.435,1.435,0,0,1-.182.733,1.225,1.225,0,0,1-.515.486,1.666,1.666,0,0,1-.773.172h-.971v-2.788h.971a1.678,1.678,0,0,1,.773.171m-.114,1.9a.914.914,0,0,0,.239-.676.935.935,0,0,0-.239-.681.91.91,0,0,0-.68-.246h-.4v1.843h.4a.924.924,0,0,0,.68-.24" transform="translate(-543.785 -272.687)" fill="#04192e"/>
        <path id="Path_55335" data-name="Path 55335" d="M670.51,318.861H669.4l-.183.532h-.587l1-2.792h.652l1,2.792h-.593Zm-.153-.447-.4-1.167-.4,1.167Z" transform="translate(-575.84 -272.663)" fill="#04192e"/>
        <path id="Path_55336" data-name="Path 55336" d="M695.929,319.184a.868.868,0,0,1-.371-.287.751.751,0,0,1-.139-.444h.6a.387.387,0,0,0,.122.278.434.434,0,0,0,.3.1.454.454,0,0,0,.307-.094.3.3,0,0,0,.112-.246.277.277,0,0,0-.076-.2.513.513,0,0,0-.19-.126,2.883,2.883,0,0,0-.312-.1,3.6,3.6,0,0,1-.443-.158.789.789,0,0,1-.291-.236.677.677,0,0,1-.122-.416.752.752,0,0,1,.125-.432.788.788,0,0,1,.347-.278,1.263,1.263,0,0,1,.512-.1,1.111,1.111,0,0,1,.7.21.777.777,0,0,1,.3.586h-.615a.323.323,0,0,0-.122-.239.459.459,0,0,0-.3-.093.391.391,0,0,0-.262.083.3.3,0,0,0-.1.244.249.249,0,0,0,.073.186.59.59,0,0,0,.183.119,3.2,3.2,0,0,0,.309.105,3.474,3.474,0,0,1,.444.16.815.815,0,0,1,.3.24.673.673,0,0,1,.123.416.8.8,0,0,1-.115.416.812.812,0,0,1-.34.305,1.151,1.151,0,0,1-.531.114,1.32,1.32,0,0,1-.525-.1" transform="translate(-598.911 -272.527)" fill="#04192e"/>
        <path id="Path_55337" data-name="Path 55337" d="M730.994,318.545a1.561,1.561,0,0,1-.774-.2,1.5,1.5,0,0,1-.563-.555,1.553,1.553,0,0,1-.207-.8,1.527,1.527,0,0,1,.208-.791,1.487,1.487,0,0,1,.555-.555,1.618,1.618,0,0,1,1.553,0,1.477,1.477,0,0,1,.555.555,1.634,1.634,0,0,1,0,1.586,1.468,1.468,0,0,1-.555.555,1.563,1.563,0,0,1-.776.2m0-2.352a.75.75,0,0,0-.387.1.649.649,0,0,0-.257.278.934.934,0,0,0-.1.436.956.956,0,0,0,.1.44.655.655,0,0,0,.257.278.812.812,0,0,0,.773,0,.665.665,0,0,0,.255-.278.971.971,0,0,0,.1-.44.933.933,0,0,0-.1-.436.645.645,0,0,0-.255-.278.741.741,0,0,0-.386-.1" transform="translate(-628.218 -271.673)" fill="#04192e"/>
        <path id="Path_55338" data-name="Path 55338" d="M730.991,319.012a1.388,1.388,0,0,1-.519-.509,1.508,1.508,0,0,1,0-1.471,1.388,1.388,0,0,1,.519-.509,1.507,1.507,0,0,1,1.44,0,1.374,1.374,0,0,1,.515.509,1.518,1.518,0,0,1,0,1.471,1.366,1.366,0,0,1-.516.509,1.5,1.5,0,0,1-1.439,0m1.163-.43a.782.782,0,0,0,.3-.325,1.068,1.068,0,0,0,.108-.493,1.047,1.047,0,0,0-.108-.488.774.774,0,0,0-.3-.322.862.862,0,0,0-.444-.111.876.876,0,0,0-.445.111.769.769,0,0,0-.3.322,1.047,1.047,0,0,0-.108.488,1.068,1.068,0,0,0,.108.493.776.776,0,0,0,.3.325.865.865,0,0,0,.446.114.849.849,0,0,0,.444-.114" transform="translate(-628.934 -272.439)" fill="#04192e"/>
        <path id="Path_55339" data-name="Path 55339" d="M760.379,318.793l-1.091-1.646v1.646H758.5V315.77h.736l1.089,1.649V315.77h.79v3.023Z" transform="translate(-653.238 -271.948)" fill="#04192e"/>
        <path id="Path_55340" data-name="Path 55340" d="M761.714,319.392h-.559l-1.266-1.914v1.914h-.559V316.6h.559l1.266,1.918V316.6h.559Z" transform="translate(-653.953 -272.663)" fill="#04192e"/>
        <path id="Path_55341" data-name="Path 55341" d="M785.12,318.793V315.77h1.849v.686H785.91v.469h.939v.673h-.939v.509h1.059v.686Z" transform="translate(-676.164 -271.948)" fill="#04192e"/>
        <path id="Path_55342" data-name="Path 55342" d="M786.509,317.055v.7h.94v.443h-.94v.74h1.059v.455H785.95V316.6h1.618v.455Z" transform="translate(-676.878 -272.663)" fill="#04192e"/>
      </g>
    </g>
    <g id="Group_43426" data-name="Group 43426" transform="translate(-14445.124 -15022.329)">
      <path id="Ellipse_4433" data-name="Ellipse 4433" d="M3.171.453A2.718,2.718,0,1,0,5.888,3.171,2.721,2.721,0,0,0,3.171.453m0-.453A3.171,3.171,0,1,1,0,3.171,3.171,3.171,0,0,1,3.171,0Z" transform="translate(0)" fill="#04192e"/>
      <path id="Path_55343" data-name="Path 55343" d="M-3.616-2.166h.342V-3.677h.557V-3.96H-4.17v.283h.554ZM-.561-3.96H-.92l-.465,1.025a3.194,3.194,0,0,0-.12.3h-.008c-.014-.043-.071-.193-.117-.3L-2.1-3.96h-.37v1.794h.34l-.005-.995c0-.079-.008-.207-.011-.22l.011-.005a.832.832,0,0,0,.057.168l.47,1.06h.19l.459-1.049A1.374,1.374,0,0,0-.9-3.387l.014.005a1.636,1.636,0,0,0-.014.22l0,.995h.34Z" transform="translate(5.529 6.225)" fill="#04192e"/>
    </g>
  </g>
</svg>
