<svg xmlns="http://www.w3.org/2000/svg" width="46" height="46" viewBox="0 0 46 46">
  <g id="twitter" transform="translate(-601 -1023)">
    <circle id="Ellipse_3427" data-name="Ellipse 3427" cx="23" cy="23" r="23" transform="translate(601 1023)" fill="#5da9dd"/>
    <path id="Icon_awesome-twitter" data-name="Icon awesome-twitter" d="M18.787,7.619c.013.186.013.372.013.558A12.126,12.126,0,0,1,6.59,20.387,12.127,12.127,0,0,1,0,18.46a8.877,8.877,0,0,0,1.036.053A8.594,8.594,0,0,0,6.364,16.68,4.3,4.3,0,0,1,2.352,13.7a5.412,5.412,0,0,0,.81.066,4.539,4.539,0,0,0,1.129-.146A4.292,4.292,0,0,1,.85,9.413V9.36A4.322,4.322,0,0,0,2.79,9.9a4.3,4.3,0,0,1-1.329-5.74A12.2,12.2,0,0,0,10.31,8.655a4.844,4.844,0,0,1-.106-.983,4.3,4.3,0,0,1,7.427-2.936A8.449,8.449,0,0,0,20.354,3.7a4.28,4.28,0,0,1-1.887,2.365A8.6,8.6,0,0,0,20.939,5.4a9.225,9.225,0,0,1-2.152,2.219Z" transform="translate(614 1034.116)" fill="#fff"/>
  </g>
</svg>
